<svg width="60" height="47" viewBox="0 0 60 47" fill="none" xmlns="http://www.w3.org/2000/svg">
<path d="M30.4525 0.157633C32.2201 3.65158 38.6942 12.8763 59.0413 10.386C59.1219 10.3774 59.2029 10.3977 59.2699 10.4432C59.337 10.4887 59.3857 10.5565 59.4075 10.6346C59.4293 10.7126 59.4227 10.7959 59.3888 10.8695C59.355 10.9432 59.2962 11.0025 59.2228 11.0368C54.5985 13.0921 50.392 14.7363 45.7848 16.7984C42.5889 18.2268 35.9401 21.3817 30.2915 23.8069C30.2159 23.8358 30.1324 23.837 30.056 23.8102C29.9795 23.7834 29.9151 23.7304 29.874 23.6606C29.8329 23.5908 29.8179 23.5086 29.8317 23.4288C29.8454 23.349 29.887 23.2766 29.949 23.2246L41.938 14.1848C41.9835 14.1494 42.0194 14.1031 42.0422 14.0502C42.065 13.9972 42.0741 13.9394 42.0687 13.882C42.0632 13.8247 42.0433 13.7696 42.0109 13.7219C41.9785 13.6742 41.9346 13.6355 41.8832 13.6093C39.5265 12.4927 30.0038 7.47094 29.8223 0.322048C29.8266 0.24989 29.8536 0.180958 29.8995 0.125102C29.9454 0.0692458 30.0078 0.0293416 30.0777 0.0110946C30.1477 -0.00715237 30.2216 -0.00280897 30.2889 0.0235135C30.3563 0.049836 30.4135 0.0967824 30.4525 0.157633Z" fill="#4BD295"/>
<path d="M17.2231 38.2382C17.2231 43.2805 13.7292 46.5621 9.00205 46.5621C6.78579 46.5621 4.89153 45.8016 3.62412 44.2533V46.3497H0V23.8103H3.7988V32.1033C5.10389 30.6441 6.92624 29.9487 8.99178 29.9487C13.7292 29.9487 17.2231 33.196 17.2231 38.2382ZM13.3661 38.2382C13.3661 35.1554 11.3108 33.1686 8.57046 33.1686C5.83011 33.1686 3.74057 35.1416 3.74057 38.2382C3.74057 41.3348 5.83696 43.3113 8.57046 43.3113C11.304 43.3113 13.3661 41.3383 13.3661 38.2382Z" fill="white"/>
<path d="M18.501 25.177C18.5056 24.8661 18.5729 24.5592 18.6987 24.2748C18.8245 23.9904 19.0064 23.7343 19.2334 23.5217C19.4604 23.3091 19.7278 23.1444 20.0198 23.0375C20.3119 22.9305 20.6224 22.8834 20.933 22.8991C22.3306 22.8991 23.3617 23.8411 23.3617 25.088C23.3671 25.4056 23.3075 25.7209 23.1866 26.0146C23.0656 26.3083 22.8859 26.5742 22.6585 26.7959C22.431 27.0176 22.1606 27.1904 21.8639 27.3037C21.5671 27.4171 21.2504 27.4685 20.933 27.4549C19.5355 27.4549 18.501 26.4479 18.501 25.177ZM19.0182 30.1302H22.817V46.3497H19.0182V30.1302Z" fill="white"/>
<path d="M35.3608 29.9487V33.5625C35.0709 33.5044 34.7761 33.4734 34.4805 33.4701C31.5928 33.4701 29.7705 35.1828 29.7705 38.4815V46.36H25.9751V30.1303H29.6061V32.4972C30.6816 30.7982 32.6581 29.9487 35.3608 29.9487Z" fill="white"/>
<path d="M52.4951 23.8103V46.3497H48.8504V44.2602C47.5727 45.8085 45.6887 46.5689 43.4725 46.5689C38.7659 46.5689 35.272 43.2874 35.272 38.2451C35.272 33.2029 38.7659 29.9555 43.4725 29.9555C45.5688 29.9555 47.422 30.6406 48.6963 32.141V23.8103H52.4951ZM48.7579 38.2382C48.7579 35.1554 46.6616 33.1686 43.9281 33.1686C41.1946 33.1686 39.0982 35.1417 39.0982 38.2382C39.0982 41.3348 41.1946 43.3113 43.9281 43.3113C46.6616 43.3113 48.7579 41.3383 48.7579 38.2382Z" fill="white"/>
<path d="M55.1392 25.177C55.1438 24.8664 55.211 24.5599 55.3366 24.2757C55.4622 23.9915 55.6438 23.7356 55.8704 23.523C56.097 23.3105 56.364 23.1457 56.6557 23.0385C56.9473 22.9313 57.2575 22.8839 57.5678 22.8991C58.9654 22.8991 59.9999 23.8411 59.9999 25.088C59.9907 25.7192 59.7366 26.322 59.2911 26.7693C58.8456 27.2165 58.2437 27.473 57.6126 27.4845C56.9815 27.4961 56.3706 27.2618 55.909 26.8312C55.4475 26.4006 55.1714 25.8075 55.1392 25.177ZM55.6564 30.1302H59.4518V46.3497H55.6564V30.1302Z" fill="white"/>
</svg>
