<?xml version="1.0" encoding="UTF-8" standalone="no"?>
<!DOCTYPE svg PUBLIC "-//W3C//DTD SVG 1.1//EN" "http://www.w3.org/Graphics/SVG/1.1/DTD/svg11.dtd">
<svg width="100%" height="100%" viewBox="0 0 1852 838" version="1.1" xmlns="http://www.w3.org/2000/svg" xmlns:xlink="http://www.w3.org/1999/xlink" xml:space="preserve" xmlns:serif="http://www.serif.com/" style="fill-rule:evenodd;clip-rule:evenodd;stroke-linejoin:round;stroke-miterlimit:2;">
    <g transform="matrix(1,0,0,1,-159.342,-165.426)">
        <rect x="159.795" y="873.86" width="1851.32" height="129.469" style="fill:rgb(240,29,8);"/>
        <path d="M803.272,955.509L816.528,955.509L809.725,931.188L803.272,955.509ZM800,968.013L797.425,977.568C797.256,978.17 796.95,978.676 796.496,979.107C796.195,979.393 795.846,979.575 795.438,979.658C794.863,979.774 794.329,979.825 793.742,979.82L781.755,979.82C781.327,979.818 780.938,979.76 780.529,979.638C779.559,979.35 778.96,978.31 779.197,977.326C779.401,976.531 779.615,975.814 779.88,975.037L804.196,902.6C804.431,901.867 804.812,901.252 805.365,900.715C805.618,900.47 805.906,900.304 806.246,900.208C806.944,900 807.609,899.906 808.338,899.914L819.95,899.914C820.511,899.909 821.024,900.013 821.54,900.235C821.914,900.397 822.209,900.651 822.426,900.996C822.774,901.549 823.031,902.089 823.239,902.708L847.339,975.241C847.52,975.791 847.679,976.293 847.849,976.846C847.971,977.269 847.977,977.685 847.866,978.11C847.669,978.832 847.128,979.388 846.411,979.603C845.876,979.76 845.368,979.829 844.811,979.82L825.876,979.82C825.275,979.824 824.727,979.723 824.168,979.505C823.544,979.273 823.082,978.777 822.898,978.137L820.039,968.013L800,968.013ZM887.124,958.289L887.124,948.555L881.049,948.555C880.415,948.558 879.837,948.466 879.235,948.268C878.806,948.131 878.483,947.802 878.353,947.372C878.166,946.723 878.082,946.107 878.089,945.431L878.089,936.419C878.089,935.932 878.178,935.489 878.365,935.039C878.519,934.663 878.823,934.387 879.213,934.272C879.937,934.067 880.621,933.966 881.375,933.953L906.644,933.953C907.221,933.96 907.744,934.055 908.286,934.252C908.673,934.395 908.957,934.706 909.065,935.105C909.28,935.886 909.375,936.626 909.363,937.436L909.363,966.719C909.344,969.306 908.298,971.656 906.389,973.403C897.16,981.943 884.458,985.002 872.352,981.6C860.247,978.197 850.999,968.966 847.573,956.868C844.461,945.615 844.585,934.534 847.947,923.353C851.24,912.352 859.191,903.828 869.937,899.778C880.681,895.727 892.281,896.88 902.018,902.966C906.439,905.747 909.127,910.384 909.345,915.602C909.457,918.17 908.436,920.555 906.501,922.247C903.91,924.513 900.536,925.413 897.161,924.739C893.785,924.065 891.015,921.939 889.492,918.852C888.608,917.022 887.593,915.458 886.282,913.905C885.108,912.485 883.408,911.715 881.567,911.769C880.035,911.816 878.651,912.266 877.384,913.128C876.118,913.991 875.193,915.115 874.589,916.523C868.86,930.062 868.73,944.563 874.216,958.202C875.271,960.778 876.994,962.817 879.358,964.287C880.368,964.919 881.421,965.283 882.606,965.409C883.435,965.495 884.218,965.309 884.92,964.86C885.622,964.41 886.118,963.774 886.383,962.984C886.902,961.427 887.138,959.93 887.124,958.289ZM973.135,913.116L973.135,965.234C976.251,965.481 979.179,964.629 981.675,962.747C984.172,960.866 985.8,958.288 986.424,955.225C988.52,944.331 988.419,934.02 986.11,923.169C985.434,920.187 983.842,917.687 981.425,915.815C979.008,913.942 976.191,913.025 973.135,913.116ZM948.813,973.917L948.813,904.61C948.814,903.743 949.075,902.953 949.591,902.256C950.106,901.559 950.786,901.078 951.615,900.823C963.664,897.332 975.568,897.305 987.633,900.744C993.578,902.386 998.584,905.387 1002.83,909.857C1007.08,914.327 1009.83,919.478 1011.17,925.498C1013.16,934.412 1013.3,942.91 1011.59,951.885C1010.32,958.588 1007.39,964.366 1002.74,969.359C998.09,974.353 992.535,977.685 985.94,979.436C974.31,982.442 962.967,982.32 951.405,979.063C950.753,978.877 950.209,978.531 949.765,978.019C949.321,977.507 949.055,976.919 948.966,976.247C948.857,975.451 948.809,974.72 948.813,973.917ZM1043.57,912.427L1043.57,939.174C1045.87,939.381 1048.03,938.834 1049.96,937.56C1051.88,936.286 1053.23,934.51 1053.94,932.313C1055.52,927.238 1055.27,922.087 1053.21,917.186C1052.88,916.405 1052.41,915.765 1051.77,915.213C1049.46,913.219 1046.62,912.254 1043.57,912.427ZM1019.93,976.752L1019.95,903.615C1019.95,902.948 1020.03,902.34 1020.22,901.699C1020.34,901.273 1020.62,900.933 1021.01,900.728C1021.41,900.528 1021.79,900.393 1022.22,900.3C1035.73,897.383 1048.68,897.651 1062.06,901.123C1066.16,902.239 1069.62,904.313 1072.53,907.41C1075.45,910.506 1077.31,914.08 1078.18,918.244C1079.05,922.409 1078.77,926.429 1077.34,930.434C1075.9,934.439 1073.57,937.722 1070.25,940.387C1068.56,941.744 1066.95,942.887 1065.11,944.037L1083.01,975.902C1083.32,976.463 1083.49,977.04 1083.53,977.68C1083.58,978.491 1083.08,979.249 1082.32,979.52C1081.71,979.728 1081.12,979.823 1080.48,979.82L1061.47,979.82C1060.77,979.817 1060.14,979.714 1059.47,979.498C1059.31,979.447 1059.17,979.378 1059.04,979.28C1058.58,978.951 1058.25,978.545 1058,978.038L1044.97,949.991C1044.73,949.478 1043.85,949.568 1043.71,950.119C1043.61,950.528 1043.56,950.913 1043.57,951.335L1043.57,977.152C1043.56,977.7 1043.45,978.199 1043.23,978.699C1043.08,979.042 1042.8,979.294 1042.45,979.421C1041.67,979.702 1040.92,979.83 1040.09,979.82L1022.58,979.82C1022.01,979.817 1021.5,979.681 1021,979.403C1020.85,979.318 1020.73,979.208 1020.63,979.063C1020.16,978.364 1019.93,977.595 1019.93,976.752ZM1110.27,956.426C1110.78,958.801 1111.84,960.838 1113.51,962.607C1114.86,964.043 1116.75,964.728 1118.7,964.493C1120.66,964.256 1122.33,963.141 1123.31,961.423C1124.2,959.854 1124.77,958.288 1125.11,956.513C1127.57,944.269 1127.41,932.634 1124.63,920.46C1124.18,918.554 1123.28,916.931 1121.9,915.542C1120.75,914.382 1119.24,913.782 1117.61,913.836C1115.98,913.887 1114.51,914.582 1113.43,915.811C1112.23,917.143 1111.44,918.629 1111,920.369C1108.11,932.522 1107.87,944.166 1110.27,956.426ZM1089.31,964.822C1081.37,949.538 1081.08,932.037 1088.5,916.495C1091.15,910.783 1095.1,906.286 1100.42,902.925C1105.74,899.564 1111.5,897.93 1117.8,897.994C1124.09,898.061 1129.82,899.815 1135.07,903.287C1140.32,906.76 1144.17,911.34 1146.7,917.107C1153.53,932.078 1153.6,948.532 1146.88,963.554C1144.3,969.144 1140.5,973.568 1135.36,976.944C1130.21,980.321 1124.64,982.054 1118.49,982.191C1112.34,982.326 1106.69,980.84 1101.41,977.693C1096.12,974.546 1092.12,970.293 1089.31,964.822ZM1180.68,903.047L1200.83,936.748L1200.83,902.233C1200.82,901.273 1201.45,900.411 1202.37,900.133C1202.9,899.975 1203.41,899.905 1203.96,899.914L1216.11,899.914C1216.7,899.914 1217.25,900.041 1217.79,900.305C1218.3,900.553 1218.65,900.997 1218.78,901.546C1218.87,901.934 1218.91,902.296 1218.9,902.694L1218.9,977.185C1218.91,977.729 1218.81,978.225 1218.61,978.728C1218.41,979.196 1218.03,979.534 1217.53,979.656C1217.06,979.773 1216.61,979.825 1216.12,979.82L1205.62,979.82C1204.89,979.825 1204.23,979.722 1203.54,979.498C1203.17,979.38 1202.86,979.175 1202.61,978.879C1202.06,978.224 1201.6,977.591 1201.15,976.86L1177.21,936.748L1177.21,977.256C1177.2,977.776 1177.11,978.248 1176.91,978.728C1176.72,979.196 1176.33,979.533 1175.84,979.655C1175.37,979.773 1174.92,979.825 1174.43,979.82L1162.1,979.82C1161.49,979.824 1160.93,979.738 1160.34,979.551C1159.83,979.381 1159.45,978.975 1159.31,978.453C1159.19,977.98 1159.14,977.537 1159.14,977.049L1159.14,902.557C1159.14,901.976 1159.25,901.445 1159.49,900.913C1159.64,900.56 1159.93,900.302 1160.3,900.187C1160.96,899.991 1161.58,899.904 1162.27,899.914L1176.25,899.914C1177.54,899.916 1178.71,900.459 1179.55,901.44C1179.99,901.957 1180.34,902.462 1180.68,903.047ZM1270.58,947.17L1254.25,947.17L1254.25,963.151L1274.8,963.151C1275.34,963.151 1275.83,963.259 1276.33,963.486C1276.69,963.653 1276.97,963.928 1277.13,964.292C1277.4,964.893 1277.52,965.494 1277.52,966.152L1277.53,977.191C1277.53,977.758 1277.39,978.274 1277.11,978.767C1276.96,979.027 1276.76,979.223 1276.49,979.358C1275.86,979.67 1275.22,979.82 1274.52,979.82L1233.16,979.82C1232.53,979.819 1231.96,979.703 1231.38,979.458C1230.71,979.178 1230.25,978.61 1230.1,977.908C1229.98,977.381 1229.93,976.891 1229.93,976.352L1229.93,902.929C1229.93,902.295 1230.07,901.716 1230.36,901.153C1230.56,900.765 1230.88,900.482 1231.29,900.33C1232.1,900.035 1232.89,899.902 1233.75,899.914L1274.58,899.914C1275.18,899.912 1275.73,899.994 1276.3,900.171C1276.83,900.331 1277.23,900.748 1277.36,901.285C1277.48,901.759 1277.54,902.205 1277.53,902.694L1277.53,913.222C1277.53,913.776 1277.44,914.281 1277.25,914.801C1277.13,915.146 1276.86,915.405 1276.51,915.521C1275.7,915.789 1274.91,915.908 1274.06,915.895L1254.25,915.895L1254.25,931.188L1271.27,931.188C1271.91,931.187 1272.5,931.335 1273.07,931.64C1273.43,931.831 1273.68,932.138 1273.8,932.525C1273.98,933.12 1274.07,933.689 1274.06,934.312L1274.06,944.486C1274.06,945.046 1273.96,945.555 1273.77,946.081C1273.62,946.473 1273.3,946.761 1272.9,946.867C1272.12,947.081 1271.38,947.177 1270.58,947.17ZM1440.66,921.807C1440.5,917.381 1441.56,913.303 1443.83,909.506C1446.11,905.708 1449.21,902.859 1453.19,900.911C1464.33,895.561 1477.17,896.448 1487.47,903.278C1491.25,905.842 1493.65,909.736 1494.22,914.272C1494.49,916.425 1494.07,918.471 1492.97,920.343C1491.87,922.214 1490.29,923.583 1488.28,924.403C1486.27,925.224 1484.19,925.353 1482.09,924.786C1480,924.22 1478.27,923.056 1476.94,921.335C1476.01,920.135 1475.25,918.982 1474.51,917.658C1473.56,915.98 1472.54,914.549 1471.25,913.116C1470.21,911.974 1468.8,911.348 1467.25,911.335C1465.8,911.323 1464.47,912.06 1463.71,913.304C1462.8,914.811 1462.48,916.491 1462.76,918.227C1463.05,919.963 1463.9,921.45 1465.24,922.583C1465.92,923.154 1466.58,923.616 1467.35,924.054L1473.54,927.683C1477.76,930.072 1481.49,932.435 1485.45,935.232C1492.67,940.28 1496.97,948.098 1497.38,956.892C1497.61,961.721 1496.41,966.192 1493.81,970.264C1491.2,974.336 1487.64,977.294 1483.16,979.112C1474.41,982.653 1465.28,983.027 1456.27,980.21C1449.84,978.169 1444.77,973.774 1441.85,967.69C1440.32,964.526 1439.82,961.211 1440.34,957.737C1440.65,955.715 1441.66,953.982 1443.26,952.71C1445.3,951.096 1447.63,950.22 1450.23,950.093C1453.1,949.953 1455.77,951.14 1457.58,953.361C1459.65,955.939 1461.23,958.525 1462.59,961.538C1463.33,963.184 1464.41,964.501 1465.89,965.539C1466.92,966.262 1468.08,966.613 1469.34,966.586C1470.53,966.561 1471.62,966.071 1472.42,965.187C1473.67,963.825 1474.14,961.981 1473.7,960.188C1472.88,956.752 1470.8,953.938 1467.75,952.159L1453.82,943.932C1445.86,939.252 1440.97,931.036 1440.66,921.807ZM1545.09,947.17L1528.76,947.17L1528.76,963.151L1549.3,963.151C1549.85,963.151 1550.34,963.259 1550.83,963.486C1551.2,963.653 1551.47,963.928 1551.64,964.292C1551.9,964.894 1552.03,965.494 1552.02,966.152L1552.04,977.191C1552.04,977.758 1551.9,978.274 1551.62,978.767C1551.47,979.027 1551.26,979.223 1551,979.358C1550.37,979.67 1549.73,979.82 1549.03,979.82L1507.67,979.82C1507.04,979.819 1506.46,979.703 1505.88,979.458C1505.22,979.178 1504.75,978.61 1504.6,977.908C1504.49,977.381 1504.44,976.891 1504.44,976.352L1504.44,902.929C1504.44,902.295 1504.58,901.716 1504.87,901.153C1505.07,900.765 1505.39,900.482 1505.8,900.33C1506.61,900.035 1507.4,899.902 1508.26,899.914L1549.09,899.914C1549.69,899.912 1550.24,899.994 1550.81,900.171C1551.34,900.331 1551.74,900.748 1551.87,901.285C1551.99,901.759 1552.04,902.205 1552.04,902.694L1552.04,913.222C1552.04,913.776 1551.95,914.281 1551.76,914.801C1551.63,915.146 1551.37,915.405 1551.02,915.521C1550.2,915.789 1549.42,915.908 1548.56,915.895L1528.76,915.895L1528.76,931.188L1545.78,931.188C1546.42,931.187 1547.01,931.335 1547.58,931.64C1547.93,931.831 1548.19,932.138 1548.31,932.525C1548.49,933.12 1548.57,933.689 1548.56,934.312L1548.56,944.486C1548.56,945.046 1548.47,945.555 1548.28,946.081C1548.13,946.473 1547.81,946.76 1547.4,946.867C1546.63,947.081 1545.89,947.177 1545.09,947.17ZM1582.23,912.427L1582.23,939.174C1584.53,939.381 1586.69,938.834 1588.62,937.56C1590.54,936.286 1591.89,934.51 1592.6,932.313C1594.18,927.238 1593.93,922.087 1591.87,917.186C1591.54,916.405 1591.07,915.765 1590.43,915.213C1588.12,913.219 1585.27,912.254 1582.23,912.427ZM1558.59,976.752L1558.6,903.615C1558.6,902.948 1558.69,902.34 1558.88,901.699C1559,901.273 1559.28,900.933 1559.67,900.728C1560.07,900.528 1560.45,900.393 1560.88,900.3C1574.39,897.383 1587.34,897.651 1600.72,901.123C1604.82,902.239 1608.28,904.313 1611.19,907.409C1614.11,910.506 1615.97,914.08 1616.84,918.244C1617.71,922.409 1617.43,926.429 1616,930.434C1614.56,934.439 1612.23,937.722 1608.91,940.387C1607.22,941.744 1605.61,942.887 1603.77,944.037L1621.67,975.902C1621.98,976.463 1622.15,977.039 1622.18,977.68C1622.24,978.491 1621.74,979.249 1620.97,979.52C1620.37,979.728 1619.78,979.823 1619.13,979.82L1600.13,979.82C1599.43,979.817 1598.8,979.714 1598.13,979.498C1597.97,979.447 1597.84,979.378 1597.7,979.28C1597.24,978.951 1596.9,978.545 1596.66,978.038L1583.63,949.991C1583.39,949.479 1582.51,949.569 1582.37,950.119C1582.27,950.528 1582.22,950.913 1582.23,951.335L1582.23,977.152C1582.22,977.7 1582.11,978.199 1581.89,978.699C1581.74,979.042 1581.46,979.294 1581.11,979.421C1580.33,979.702 1579.58,979.83 1578.75,979.82L1561.23,979.82C1560.67,979.817 1560.15,979.681 1559.66,979.403C1559.51,979.318 1559.39,979.208 1559.29,979.063C1558.82,978.364 1558.59,977.595 1558.59,976.752ZM1643.79,903.047L1652.82,940.913L1663.56,902.783C1663.74,902.182 1663.97,901.657 1664.29,901.121C1664.52,900.742 1664.85,900.468 1665.26,900.309C1665.96,900.029 1666.65,899.903 1667.41,899.914L1679.9,899.914C1680.51,899.914 1681.07,900.03 1681.63,900.275C1682.43,900.61 1682.87,901.514 1682.63,902.346C1682.44,903.07 1682.25,903.722 1682.01,904.432L1658.84,977.077C1658.63,977.737 1658.34,978.305 1657.92,978.858C1657.6,979.275 1657.17,979.545 1656.66,979.647C1656.06,979.77 1655.51,979.825 1654.9,979.82L1645.04,979.82C1644.38,979.825 1643.78,979.677 1643.2,979.367C1642.81,979.154 1642.51,978.861 1642.29,978.478C1642.01,977.976 1641.8,977.492 1641.63,976.942L1618.58,904.224C1618.33,903.425 1618.16,902.679 1618.04,901.85C1617.96,901.194 1618.32,900.556 1618.91,900.275C1619.48,900.021 1620.04,899.901 1620.66,899.905L1640.29,899.914C1640.91,899.918 1641.48,900.013 1642.08,900.213C1642.65,900.402 1643.09,900.816 1643.32,901.375C1643.55,901.928 1643.7,902.456 1643.79,903.047ZM1713.31,902.694L1713.31,976.827C1713.31,977.407 1713.2,977.937 1712.97,978.466C1712.81,978.821 1712.57,979.098 1712.23,979.288C1711.59,979.655 1710.92,979.83 1710.18,979.82L1691.13,979.82C1690.47,979.827 1689.86,979.635 1689.32,979.246C1689.01,979.022 1688.79,978.74 1688.64,978.39C1688.41,977.84 1688.29,977.295 1688.29,976.696L1688.29,902.366C1688.29,901.881 1688.38,901.439 1688.57,900.99C1688.72,900.612 1689.03,900.334 1689.42,900.212C1690.08,899.999 1690.72,899.904 1691.42,899.914L1710.64,899.914C1711.2,899.916 1711.71,900.009 1712.23,900.204C1712.56,900.325 1712.8,900.558 1712.94,900.873C1713.2,901.462 1713.32,902.05 1713.31,902.694ZM1764.3,921.04C1763.64,920.08 1763.07,919.181 1762.5,918.166C1761.45,916.273 1760.26,914.685 1758.73,913.152C1757.79,912.208 1756.56,911.721 1755.23,911.764C1753.11,911.833 1751.23,912.917 1750.1,914.707C1749.6,915.492 1749.22,916.249 1748.88,917.114C1743.51,930.732 1744.93,945.599 1752.78,957.954C1754.54,960.662 1757.2,962.448 1760.37,963.059C1763.54,963.671 1766.67,963 1769.31,961.141C1770.2,960.515 1770.97,959.9 1771.78,959.178C1772.33,958.692 1772.87,958.301 1773.5,957.936C1774.6,957.303 1775.8,957.078 1777.06,957.269C1778.31,957.462 1779.39,958.038 1780.25,958.972C1781.76,960.606 1782.32,962.823 1781.79,964.978C1780.39,970.349 1777.11,974.724 1772.34,977.566C1764.12,982.522 1754.6,983.653 1745.45,980.76C1736.3,977.867 1729.15,971.464 1725.28,962.686C1719.14,948.916 1718.82,934.016 1724.35,919.991C1728.02,910.597 1735.2,903.534 1744.65,900.011C1754.1,896.488 1764.15,897.133 1773.08,901.833C1777.89,904.31 1781.1,908.829 1781.84,914.189C1782.13,916.387 1781.71,918.485 1780.58,920.394C1779.45,922.305 1777.82,923.69 1775.76,924.496C1773.69,925.303 1771.55,925.388 1769.43,924.748C1767.31,924.107 1765.57,922.854 1764.3,921.04ZM1828.7,947.17L1812.38,947.17L1812.38,963.151L1832.92,963.151C1833.46,963.151 1833.96,963.259 1834.45,963.486C1834.81,963.653 1835.09,963.928 1835.26,964.292C1835.52,964.894 1835.65,965.494 1835.64,966.152L1835.66,977.191C1835.65,977.758 1835.52,978.274 1835.24,978.767C1835.09,979.027 1834.88,979.223 1834.61,979.358C1833.98,979.67 1833.34,979.82 1832.64,979.82L1791.28,979.82C1790.65,979.819 1790.08,979.702 1789.5,979.458C1788.84,979.178 1788.37,978.61 1788.22,977.908C1788.11,977.381 1788.06,976.891 1788.06,976.352L1788.06,902.929C1788.05,902.295 1788.19,901.716 1788.48,901.153C1788.68,900.765 1789,900.482 1789.41,900.33C1790.22,900.035 1791.01,899.902 1791.88,899.914L1832.71,899.914C1833.31,899.912 1833.85,899.994 1834.42,900.171C1834.95,900.331 1835.35,900.748 1835.49,901.285C1835.61,901.759 1835.66,902.205 1835.66,902.694L1835.66,913.222C1835.65,913.776 1835.56,914.281 1835.37,914.801C1835.25,915.146 1834.98,915.405 1834.64,915.521C1833.82,915.789 1833.04,915.908 1832.18,915.895L1812.38,915.895L1812.38,931.188L1829.39,931.188C1830.04,931.187 1830.62,931.335 1831.19,931.64C1831.55,931.831 1831.8,932.138 1831.92,932.525C1832.11,933.12 1832.19,933.689 1832.18,934.312L1832.18,944.486C1832.18,945.046 1832.09,945.555 1831.89,946.081C1831.75,946.473 1831.43,946.761 1831.02,946.867C1830.24,947.081 1829.51,947.177 1828.7,947.17ZM1840.32,921.807C1840.16,917.381 1841.21,913.303 1843.49,909.506C1845.77,905.708 1848.87,902.859 1852.85,900.911C1863.99,895.561 1876.83,896.448 1887.13,903.278C1890.91,905.842 1893.3,909.737 1893.88,914.272C1894.14,916.425 1893.72,918.47 1892.62,920.341C1891.53,922.212 1889.95,923.581 1887.94,924.402C1885.93,925.223 1883.85,925.352 1881.75,924.786C1879.66,924.219 1877.92,923.056 1876.6,921.335C1875.67,920.135 1874.91,918.982 1874.17,917.658C1873.22,915.98 1872.2,914.549 1870.91,913.116C1869.87,911.974 1868.46,911.348 1866.91,911.335C1865.45,911.323 1864.13,912.061 1863.37,913.304C1862.46,914.811 1862.14,916.491 1862.42,918.227C1862.71,919.963 1863.56,921.45 1864.9,922.583C1865.58,923.154 1866.24,923.616 1867,924.054L1873.2,927.683C1877.42,930.072 1881.15,932.435 1885.11,935.232C1892.33,940.28 1896.63,948.098 1897.04,956.892C1897.27,961.721 1896.07,966.192 1893.47,970.263C1890.86,974.335 1887.3,977.294 1882.82,979.112C1874.08,982.653 1864.94,983.027 1855.93,980.21C1849.5,978.169 1844.43,973.774 1841.51,967.69C1839.98,964.526 1839.48,961.211 1840,957.737C1840.31,955.715 1841.32,953.982 1842.92,952.71C1844.96,951.096 1847.29,950.22 1849.89,950.093C1852.76,949.953 1855.43,951.14 1857.24,953.361C1859.31,955.939 1860.89,958.525 1862.25,961.538C1862.98,963.185 1864.07,964.501 1865.55,965.539C1866.58,966.262 1867.74,966.613 1869,966.586C1870.19,966.561 1871.27,966.071 1872.08,965.187C1873.33,963.825 1873.8,961.981 1873.36,960.188C1872.54,956.752 1870.46,953.938 1867.41,952.159L1853.48,943.932C1845.51,939.252 1840.63,931.036 1840.32,921.807Z" style="fill:white;fill-rule:nonzero;"/>
        <path id="type" fill="var(--color-brand)" d="M1304.77,656.391L1400.19,656.391L1400.19,696.754C1397.3,697.391 1394.92,699.079 1393.36,701.586C1391.86,704.031 1391.49,706.873 1392.32,709.621L1406.77,755.804L1418.63,709.473C1419.27,706.771 1418.88,704.076 1417.49,701.669C1416.11,699.261 1413.98,697.564 1411.33,696.754L1411.33,656.391L1491.72,656.391L1491.72,696.754C1487.24,701.214 1484.1,706.243 1482.08,712.238L1429.79,867.351C1421.66,889.981 1413.31,910.208 1403.11,931.985C1394.42,948.22 1380.61,959.876 1363.14,965.716C1345.68,971.557 1327.64,970.557 1310.93,962.82L1310.93,917.219C1319.47,916.651 1327.11,913.952 1334.11,909.03C1341.11,904.106 1346.24,897.826 1349.66,889.98L1367.03,845.43L1316.37,711.088C1314.07,705.068 1310.18,700.261 1304.77,696.754L1304.77,656.391ZM249.437,687.999L263.196,687.999C267.464,687.995 271.357,686.806 274.899,684.424C278.341,681.402 280.558,677.593 281.484,673.107C282.71,666.919 282.322,660.978 280.3,655.001C278.286,648.8 273.403,644.164 267.106,642.476C261.08,641.574 255.489,641.485 249.437,642.193L249.437,687.999ZM250.105,737.072L250.105,790.028C257.123,790.842 263.664,790.296 270.45,788.33C273.651,787.402 276.312,785.666 278.452,783.11C280.591,780.554 281.83,777.628 282.179,774.313C283.142,766.153 282.856,758.588 281.278,750.523C280.622,747.223 279.096,744.398 276.697,742.04C274.297,739.683 271.445,738.208 268.134,737.612C262.047,736.245 256.263,736.072 250.105,737.072ZM159.342,587.977L288.941,587.977C303.007,587.758 315.853,589.967 329.039,594.869C340.728,598.994 349.979,606.758 356.07,617.554C359.39,623.483 361.46,629.415 362.549,636.123C364.734,649.166 364.246,661.462 361.034,674.291C358.728,683.327 354.259,690.965 347.511,697.403C340.764,703.842 332.927,707.95 323.793,709.835C339.327,711.734 352.569,720.66 360.159,734.345C363.828,740.927 366.06,747.539 367.13,754.998C369.603,772.141 368.286,788.276 363.066,804.791C359.411,816.46 351.782,825.755 341.05,831.616C324.445,840.7 307.201,845.129 288.274,845.17L159.342,845.17L159.342,800.161C166.404,795.47 170.577,787.832 170.709,779.354L170.709,653.638C170.655,645.191 166.45,637.55 159.342,632.985L159.342,587.977ZM387.309,656.39L470.022,656.39L470.022,771.407C469.972,777.827 471.328,783.69 474.19,789.437C475.718,792.506 478.24,794.743 481.469,795.892C483.678,796.668 485.909,796.76 488.175,796.168C490.44,795.577 492.342,794.407 493.891,792.651L493.891,712.356C493.936,709.359 493.113,706.612 491.428,704.134C489.741,701.657 487.488,699.883 484.683,698.827L484.683,656.39L568.168,656.39L568.168,784.627C568.2,791.866 571.518,798.437 577.326,802.759L577.326,845.17L494.071,845.17L494.071,837.275C485.354,842.162 476.609,845.173 466.731,846.688C457.965,848.018 449.854,848.326 441.013,847.665C435.126,847.287 429.809,846.363 424.14,844.733C416.178,842.321 409.746,837.378 405.365,830.305C399.559,821.034 396.748,811.023 396.878,800.084L396.878,712.535C396.925,709.466 396.063,706.653 394.306,704.137C392.55,701.62 390.206,699.842 387.309,698.827L387.309,656.39ZM602.374,823.386L602.374,772.77L670.198,772.77L670.79,790.465C670.92,794.747 673.187,798.564 676.884,800.727C679.991,802.529 683.299,803.354 686.888,803.222C689.695,803.123 692.224,802.128 694.346,800.287C696.468,798.447 697.812,796.085 698.308,793.321C698.794,790.654 698.576,788.102 697.644,785.557C696.713,783.012 695.232,780.923 693.14,779.2C689.916,776.436 686.49,774.488 682.466,773.13C674.662,770.554 667.392,768.739 659.293,767.343C654.124,766.446 649.431,765.602 644.273,764.643C636.861,763.277 630.288,761.11 623.516,757.801C612.683,752.481 604.74,743.684 600.55,732.365C595.77,719.334 595.501,705.945 599.752,692.731C604.097,679.183 612.836,668.357 625.162,661.251C631.937,657.338 638.73,654.857 646.432,653.484C666.439,649.947 685.16,649.62 705.279,652.455C727.034,655.44 746.08,663.954 762.813,678.174L762.813,722.849L695.761,722.849L695.761,710.838C695.85,706.408 693.995,702.336 690.593,699.496C686.876,696.598 682.274,695.518 677.656,696.461C673.889,697.17 670.776,699.487 669.014,702.891C667.586,705.794 667.468,709.021 668.68,712.021C670.556,716.569 674.016,719.992 678.583,721.82C685.554,724.628 692.127,726.6 699.491,728.096L708.982,729.947L718.447,731.696C727.573,733.512 735.61,736.526 743.678,741.161C755.572,747.997 763.649,759.032 766.568,772.436C768.658,781.992 769.142,791.002 768.086,800.727C767.189,809.22 763.841,816.699 758.106,823.026C745.947,836.341 730.582,844.586 712.764,847.357C684.803,851.782 658.32,849.519 631.516,840.412C620.479,836.597 611.117,831.127 602.374,823.386ZM789.176,587.977L871.297,587.977L871.297,656.519C885.788,648.934 900.574,645.041 916.922,644.508C926.214,644.273 934.725,645.857 943.311,649.42C952.991,652.987 960.325,660.266 963.964,669.919C966.614,676.972 967.857,683.834 967.848,691.369L967.848,784.55C967.802,787.834 968.65,790.842 970.403,793.619C972.157,796.396 974.507,798.455 977.492,799.827L977.492,845.17L899.818,845.17C895.74,826.422 893.924,808.957 894.058,789.771L894.058,723.363C894.143,718.014 893.047,713.12 890.69,708.317C889.763,706.46 888.401,705.025 886.595,704.003C884.789,702.98 882.857,702.55 880.788,702.711C877.374,702.981 874.329,704.1 871.554,706.106L871.554,781.823C871.484,789.033 874.591,795.625 880.194,800.161L880.194,845.17L789.176,845.17L789.176,802.759C794.864,797.539 797.926,790.47 797.842,782.75L797.842,648.622C797.836,641.874 794.672,635.743 789.176,631.828L789.176,587.977ZM997.553,587.977L1185.54,587.977L1185.54,676.323L1115.48,676.323L1115.48,659.785C1115.48,656.597 1114.58,653.689 1112.79,651.054C1111,648.419 1108.62,646.521 1105.65,645.356C1100.36,643.272 1095.05,642.576 1089.4,643.222L1089.4,690.7L1138.65,690.7L1138.65,741.187L1089.5,741.187L1089.5,784.344C1089.19,788.137 1090.26,791.709 1092.62,794.7C1094.97,797.69 1098.19,799.574 1101.95,800.161L1101.95,845.17L997.733,845.17L997.733,800.161C1004.81,795.649 1009.14,788.25 1009.62,779.869L1009.62,652.789C1010.09,648.527 1009.2,644.489 1006.97,640.826C1004.74,637.163 1001.56,634.517 997.553,632.985L997.553,587.977ZM1203.05,587.977L1283.55,587.977L1283.55,782.081C1283.45,790.046 1286.59,797.344 1292.43,802.759L1292.43,845.17L1203.02,845.17L1203.02,802.502C1209.09,797.43 1212.46,790.243 1212.49,782.338L1212.49,645.048C1211.28,639.436 1207.96,634.797 1203.05,631.828L1203.05,587.977ZM1581.28,721.692L1609.62,721.692C1609.9,716.243 1609.48,711.25 1608.29,705.926C1607.68,703.035 1606.14,700.606 1603.78,698.827C1600.14,696.076 1595.54,695.278 1591.18,696.641C1588.94,697.365 1587.08,698.587 1585.53,700.354C1583.97,702.122 1583,704.125 1582.57,706.44C1581.6,711.621 1581.19,716.422 1581.28,721.692ZM1678.37,823.875C1659.82,836.154 1640.56,843.767 1618.62,847.485C1599.17,850.816 1580.92,850.718 1561.5,847.176C1549.63,845.019 1539.25,840.614 1529.45,833.571C1521.77,828.052 1516.39,820.742 1513.41,811.761C1510.87,803.228 1509.7,795.123 1509.73,786.221L1509.73,709.038C1509.74,699.203 1511.83,690.243 1516.16,681.415C1521.31,671.005 1529.55,663.26 1540.26,658.756C1546.88,655.937 1553.23,654.117 1560.35,652.995C1578.24,650.24 1594.81,649.591 1612.86,650.938C1624.93,651.808 1635.8,654.293 1647.05,658.756C1655.62,662.343 1662.67,667.435 1668.78,674.445C1675.09,681.466 1678.34,690.11 1678.24,699.547L1678.24,764.72L1581.28,764.72L1581.28,787.147C1581.22,790.188 1581.86,792.973 1583.23,795.686C1584.73,798.52 1587.36,800.432 1590.51,800.985C1593.44,801.461 1596.28,800.811 1598.71,799.113C1601.14,797.416 1602.73,794.97 1603.3,792.06C1604.54,786.011 1605.1,780.388 1605.05,774.211L1678.37,774.211L1678.37,823.875ZM1700.49,656.39L1780.17,656.39L1780.17,666.524C1785.37,656.886 1794.82,650.689 1805.73,649.754C1811.02,649.184 1815.93,649.58 1821.06,650.989L1821.06,719.454C1814.06,717.878 1807.32,718.004 1800.38,719.84C1795.49,721.149 1791.27,723.26 1787.29,726.398C1782.77,729.729 1780.19,734.826 1780.17,740.441L1780.17,784.627C1780.11,788.555 1781.14,792.153 1783.27,795.455C1785.4,798.758 1788.25,801.185 1791.84,802.759L1791.84,845.17L1701.31,845.17L1701.31,802.759C1706.71,798.187 1709.79,791.851 1710.06,784.781L1710.06,717.782C1710.07,710.004 1706.62,702.92 1700.49,698.133L1700.49,656.39ZM1843.03,823.386L1843.03,772.77L1910.85,772.77L1911.44,790.465C1911.57,794.747 1913.84,798.564 1917.54,800.727C1920.64,802.53 1923.95,803.354 1927.54,803.222C1930.35,803.122 1932.88,802.127 1935,800.287C1937.12,798.447 1938.46,796.085 1938.96,793.321C1939.45,790.654 1939.23,788.102 1938.3,785.557C1937.36,783.012 1935.88,780.922 1933.79,779.2C1930.57,776.436 1927.14,774.488 1923.12,773.13C1915.31,770.554 1908.04,768.739 1899.94,767.343C1894.77,766.446 1890.08,765.602 1884.92,764.643C1877.51,763.277 1870.94,761.11 1864.17,757.801C1853.34,752.481 1845.39,743.684 1841.2,732.365C1836.42,719.334 1836.15,705.945 1840.4,692.731C1844.75,679.183 1853.49,668.357 1865.81,661.251C1872.59,657.338 1879.38,654.857 1887.08,653.484C1907.09,649.947 1925.81,649.62 1945.93,652.455C1967.68,655.44 1986.73,663.954 2003.46,678.174L2003.46,722.849L1936.41,722.849L1936.41,710.838C1936.5,706.408 1934.64,702.336 1931.24,699.496C1927.53,696.598 1922.92,695.519 1918.31,696.461C1914.54,697.17 1911.43,699.487 1909.66,702.891C1908.24,705.794 1908.12,709.021 1909.33,712.021C1911.21,716.569 1914.67,719.993 1919.23,721.82C1926.2,724.628 1932.78,726.601 1940.14,728.096L1949.63,729.947L1959.1,731.696C1968.22,733.512 1976.26,736.526 1984.33,741.161C1996.22,747.997 2004.3,759.032 2007.22,772.436C2009.31,781.992 2009.79,791.002 2008.74,800.727C2007.84,809.219 2004.49,816.699 1998.76,823.026C1986.6,836.342 1971.23,844.587 1953.41,847.357C1925.45,851.782 1898.97,849.519 1872.16,840.412C1861.13,836.597 1851.77,831.127 1843.03,823.386Z"/>
        <path d="M1210.74,274.935C1203.28,272.588 1196.87,269.218 1190.7,264.399C1188.12,262.22 1186.01,259.942 1184.05,257.191C1181.83,253.978 1180.38,250.663 1179.52,246.856C1178.68,243.016 1178.72,239.34 1179.65,235.52C1181.86,227.985 1185.78,221.672 1191.55,216.352C1195.05,212.926 1198.46,210.048 1202.42,207.178C1211.67,200.706 1220.83,195.874 1231.39,191.886C1244.03,186.992 1255.85,183.413 1269.08,180.481C1314.18,170.56 1356.14,165.837 1402.32,165.485C1424.01,165.162 1443.76,166.168 1465.31,168.695C1484.15,170.917 1501.07,174.805 1518.99,181.031C1532.48,185.734 1543.91,192.469 1554.56,201.988C1558.51,205.73 1561.37,209.914 1563.43,214.95C1565.96,223.581 1563.88,232.692 1557.86,239.367C1549.16,249.841 1539.29,257.754 1527.17,263.95C1523.48,265.942 1520.06,267.634 1516.24,269.36C1495.65,278.266 1475.31,282.726 1452.88,283.257C1469.06,278.632 1483.38,273.053 1498.42,265.513C1505.53,262.213 1511.63,258.433 1517.75,253.542C1519.86,251.709 1521.63,249.87 1523.39,247.69C1527.19,243.161 1529.42,237.988 1530.1,232.111C1530.25,230.003 1530.06,228.062 1529.51,226.02C1527.91,221.53 1525.12,217.906 1521.2,215.2C1516.86,212.042 1512.66,209.52 1507.84,207.178C1484.73,196.422 1462.11,190.047 1436.79,187.156C1389.59,181.303 1345.79,182.726 1299.07,191.63C1267.8,197.626 1240.3,208.083 1212.94,224.371C1207.65,227.583 1203.21,231.127 1198.91,235.579C1197.39,237.291 1196.18,239.012 1195.1,241.032C1194.27,242.653 1193.76,244.246 1193.47,246.042C1193.04,251.736 1194.66,257.084 1198.18,261.577C1201.92,266.67 1205.89,270.889 1210.74,274.935ZM1298.44,208.276C1288.43,211.978 1279.57,215.991 1270.18,221.073C1265.26,223.347 1260.98,225.835 1256.57,228.986C1254.37,230.659 1252.66,232.582 1251.26,234.971C1249.87,237.84 1249.43,240.853 1249.93,243.999C1250.43,247.145 1251.79,249.87 1254,252.165C1258.42,256.658 1263.47,259.749 1269.49,261.641C1277.56,264.368 1285.12,266.226 1293.54,267.558C1302.62,268.995 1310.93,269.903 1320.11,270.46C1355.72,273.291 1388.49,271.174 1423.44,263.786C1438.09,260.693 1450.95,255.638 1463.78,247.928C1466.11,246.364 1468.09,244.732 1470.08,242.744C1472.19,240.61 1473.62,238.179 1474.47,235.299C1474.93,233.498 1475.13,231.804 1475.1,229.946C1474.81,223.232 1472.79,217.186 1468.98,211.652C1471.72,212.486 1474.09,213.639 1476.44,215.278C1478.86,217.104 1480.62,219.371 1481.77,222.173C1483.96,228.377 1484.43,234.566 1483.23,241.031C1482.79,243.571 1482.16,245.84 1481.23,248.24C1478.06,254.973 1472.96,260.073 1466.23,263.235C1452.49,270.744 1438.86,275.521 1423.44,278.233C1387.9,284.237 1355.04,286.51 1319.01,285.456C1298.3,285.76 1279.42,283.735 1259.24,279.046C1255.67,278.023 1252.48,276.907 1249.06,275.484C1241.6,272.432 1235.5,267.949 1230.37,261.744C1229.23,260.259 1228.29,258.83 1227.39,257.191C1225.63,254.047 1224.75,250.782 1224.68,247.183C1224.73,244.792 1225.25,242.623 1226.29,240.467C1228.69,236.187 1231.85,232.826 1235.98,230.155C1241.66,226.303 1247.16,223.275 1253.45,220.525C1268.16,213.986 1282.45,210.094 1298.44,208.276ZM1234.13,525.347C1234.13,522.182 1235.33,519.295 1237.57,517.057C1239.8,514.819 1242.69,513.624 1245.86,513.624C1249.02,513.621 1251.91,514.817 1254.15,517.057C1256.38,519.295 1257.58,522.182 1257.58,525.347C1257.58,528.513 1256.38,531.399 1254.15,533.638C1251.91,535.875 1249.02,537.071 1245.86,537.071C1242.69,537.07 1239.81,535.875 1237.57,533.638C1235.33,531.399 1234.13,528.513 1234.13,525.347ZM1251.14,496.225C1251.14,493.059 1252.34,490.171 1254.58,487.935C1256.81,485.697 1259.7,484.501 1262.87,484.501C1266.03,484.499 1268.92,485.695 1271.15,487.935C1273.39,490.173 1274.59,493.059 1274.59,496.225C1274.59,499.39 1273.39,502.275 1271.15,504.515C1268.92,506.753 1266.03,507.948 1262.87,507.948C1259.7,507.944 1256.82,506.749 1254.58,504.514C1252.34,502.276 1251.14,499.39 1251.14,496.225ZM1499.41,525.747C1499.41,528.912 1498.21,531.798 1495.97,534.037C1493.73,536.276 1490.85,537.47 1487.68,537.47C1484.52,537.47 1481.63,536.274 1479.39,534.037C1477.15,531.798 1475.96,528.912 1475.96,525.747C1475.96,522.581 1477.15,519.695 1479.39,517.457C1481.63,515.219 1484.52,514.023 1487.68,514.023C1490.85,514.023 1493.73,515.218 1495.97,517.457C1498.21,519.695 1499.41,522.581 1499.41,525.747ZM1482.39,496.624C1482.4,499.79 1481.2,502.676 1478.96,504.914C1476.72,507.152 1473.84,508.348 1470.67,508.348C1467.51,508.348 1464.62,507.152 1462.38,504.914C1460.14,502.676 1458.95,499.789 1458.95,496.624C1458.95,493.459 1460.14,490.573 1462.38,488.334C1464.62,486.096 1467.51,484.901 1470.67,484.901C1473.84,484.903 1476.72,486.098 1478.96,488.334C1481.2,490.573 1482.39,493.459 1482.39,496.624ZM1376.34,492.029C1374.73,494.757 1372.24,496.636 1369.17,497.427C1366.11,498.218 1363.01,497.783 1360.28,496.175C1357.56,494.568 1355.68,492.072 1354.89,489.008C1354.09,485.943 1354.53,482.849 1356.14,480.122C1357.75,477.397 1360.24,475.518 1363.31,474.725C1366.37,473.933 1369.46,474.369 1372.19,475.976C1374.92,477.584 1376.8,480.079 1377.59,483.143C1378.38,486.208 1377.94,489.302 1376.34,492.029ZM1376.54,524.527C1374.93,527.256 1372.43,529.136 1369.37,529.925C1366.3,530.717 1363.21,530.281 1360.48,528.673C1357.76,527.065 1355.88,524.57 1355.09,521.506C1354.3,518.441 1354.73,515.348 1356.34,512.621C1357.94,509.893 1360.44,508.013 1363.51,507.222C1366.57,506.431 1369.66,506.867 1372.39,508.474C1375.12,510.081 1377,512.577 1377.79,515.642C1378.58,518.707 1378.14,521.801 1376.54,524.527ZM1377.13,557.655C1375.52,560.382 1373.02,562.261 1369.96,563.053C1366.89,563.844 1363.8,563.408 1361.07,561.801C1358.35,560.194 1356.47,557.698 1355.68,554.633C1354.89,551.568 1355.32,548.475 1356.93,545.748C1358.54,543.021 1361.03,541.141 1364.1,540.35C1367.16,539.559 1370.26,539.994 1372.98,541.602C1375.71,543.21 1377.59,545.705 1378.38,548.77C1379.17,551.835 1378.74,554.928 1377.13,557.655ZM1355.13,323.717C1355.13,320.552 1356.33,317.666 1358.57,315.427C1360.81,313.189 1363.69,311.994 1366.86,311.994C1370.02,311.994 1372.91,313.189 1375.15,315.427C1377.38,317.666 1378.58,320.552 1378.58,323.717C1378.58,326.883 1377.38,329.769 1375.15,332.007C1372.91,334.245 1370.02,335.441 1366.86,335.441C1363.69,335.441 1360.81,334.245 1358.57,332.007C1356.33,329.769 1355.13,326.883 1355.13,323.717ZM1285.15,440.093C1285.15,436.927 1286.35,434.042 1288.58,431.803C1290.82,429.564 1293.71,428.369 1296.87,428.369C1300.04,428.37 1302.92,429.565 1305.16,431.803C1307.4,434.042 1308.6,436.928 1308.6,440.093C1308.6,443.258 1307.4,446.146 1305.16,448.382C1302.92,450.621 1300.04,451.816 1296.87,451.816C1293.71,451.818 1290.82,450.623 1288.58,448.383C1286.34,446.145 1285.15,443.258 1285.15,440.093ZM1337.03,352.418C1337.03,349.253 1338.22,346.367 1340.46,344.129C1342.7,341.89 1345.58,340.695 1348.75,340.695C1351.91,340.696 1354.8,341.892 1357.04,344.129C1359.28,346.367 1360.47,349.253 1360.47,352.418C1360.48,355.584 1359.28,358.471 1357.04,360.708C1354.8,362.946 1351.91,364.142 1348.75,364.142C1345.58,364.141 1342.7,362.946 1340.46,360.708C1338.22,358.47 1337.03,355.584 1337.03,352.418ZM1319.99,381.587C1319.99,378.422 1321.19,375.536 1323.42,373.297C1325.66,371.059 1328.55,369.864 1331.71,369.864C1334.88,369.861 1337.77,371.057 1340.01,373.297C1342.24,375.535 1343.44,378.422 1343.44,381.587C1343.44,384.752 1342.24,387.638 1340.01,389.877C1337.77,392.115 1334.88,393.311 1331.71,393.311C1328.55,393.311 1325.66,392.115 1323.42,389.877C1321.19,387.639 1319.99,384.752 1319.99,381.587ZM1301.85,410.712C1301.85,407.547 1303.05,404.661 1305.29,402.422C1307.52,400.184 1310.41,398.989 1313.58,398.989C1316.74,398.987 1319.63,400.182 1321.87,402.422C1324.1,404.66 1325.3,407.547 1325.3,410.712C1325.3,413.877 1324.1,416.763 1321.86,419.002C1319.63,421.24 1316.74,422.436 1313.58,422.436C1310.41,422.436 1307.52,421.24 1305.29,419.002C1303.05,416.764 1301.85,413.878 1301.85,410.712ZM1268.48,467.987C1268.48,464.822 1269.67,461.936 1271.91,459.698C1274.15,457.459 1277.04,456.264 1280.2,456.264C1283.37,456.266 1286.25,457.461 1288.49,459.698C1290.73,461.936 1291.92,464.822 1291.92,467.987C1291.92,471.153 1290.73,474.04 1288.49,476.277C1286.25,478.515 1283.37,479.711 1280.2,479.711C1277.04,479.711 1274.15,478.516 1271.91,476.277C1269.67,474.039 1268.48,471.153 1268.48,467.987ZM1448.39,440.492C1448.39,443.658 1447.19,446.544 1444.95,448.782C1442.72,451.02 1439.83,452.216 1436.66,452.216C1433.5,452.216 1430.61,451.021 1428.37,448.782C1426.14,446.544 1424.94,443.658 1424.94,440.492C1424.94,437.327 1426.14,434.441 1428.38,432.203C1430.61,429.964 1433.5,428.769 1436.66,428.769C1439.83,428.769 1442.72,429.964 1444.95,432.203C1447.19,434.441 1448.39,437.327 1448.39,440.492ZM1396.51,352.818C1396.52,355.983 1395.32,358.87 1393.08,361.108C1390.84,363.346 1387.95,364.541 1384.79,364.541C1381.62,364.546 1378.74,363.349 1376.5,361.108C1374.26,358.87 1373.07,355.984 1373.06,352.818C1373.07,349.653 1374.26,346.768 1376.5,344.528C1378.74,342.29 1381.62,341.094 1384.79,341.094C1387.95,341.096 1390.84,342.292 1393.08,344.528C1395.32,346.767 1396.51,349.653 1396.51,352.818ZM1413.55,381.987C1413.55,385.152 1412.35,388.039 1410.11,390.276C1407.88,392.515 1404.99,393.71 1401.82,393.71C1398.66,393.712 1395.77,392.516 1393.53,390.277C1391.29,388.038 1390.1,385.152 1390.1,381.987C1390.1,378.821 1391.3,375.936 1393.53,373.697C1395.77,371.459 1398.66,370.263 1401.82,370.263C1404.99,370.265 1407.87,371.46 1410.11,373.697C1412.35,375.935 1413.55,378.821 1413.55,381.987ZM1431.69,411.112C1431.69,414.277 1430.49,417.164 1428.25,419.401C1426.02,421.64 1423.13,422.835 1419.96,422.835C1416.8,422.837 1413.91,421.642 1411.67,419.402C1409.43,417.163 1408.24,414.277 1408.24,411.112C1408.24,407.946 1409.44,405.061 1411.67,402.822C1413.91,400.584 1416.8,399.388 1419.96,399.388C1423.13,399.39 1426.01,400.585 1428.25,402.822C1430.49,405.06 1431.69,407.946 1431.69,411.112ZM1465.06,468.387C1465.06,471.552 1463.87,474.439 1461.63,476.677C1459.39,478.915 1456.5,480.111 1453.34,480.111C1450.17,480.113 1447.28,478.917 1445.05,476.677C1442.81,474.439 1441.61,471.552 1441.61,468.387C1441.61,465.222 1442.81,462.336 1445.05,460.097C1447.29,457.859 1450.17,456.663 1453.34,456.663C1456.5,456.664 1459.39,457.859 1461.63,460.097C1463.87,462.335 1465.06,465.222 1465.06,468.387ZM1376.17,390.159C1374.57,392.887 1372.07,394.767 1369.01,395.556C1365.94,396.348 1362.85,395.912 1360.12,394.305C1357.4,392.697 1355.52,390.202 1354.72,387.137C1353.93,384.073 1354.37,380.979 1355.98,378.252C1357.58,375.525 1360.08,373.645 1363.14,372.854C1366.21,372.063 1369.3,372.498 1372.03,374.106C1374.76,375.713 1376.63,378.209 1377.43,381.273C1378.22,384.338 1377.78,387.432 1376.17,390.159ZM1376.03,423.936C1374.43,426.664 1371.93,428.544 1368.87,429.334C1365.8,430.125 1362.71,429.689 1359.98,428.081C1357.25,426.475 1355.37,423.979 1354.58,420.914C1353.79,417.849 1354.23,414.756 1355.83,412.029C1357.44,409.301 1359.93,407.421 1363,406.631C1366.07,405.839 1369.16,406.275 1371.89,407.882C1374.61,409.489 1376.49,411.985 1377.28,415.05C1378.08,418.115 1377.64,421.209 1376.03,423.936ZM1376.87,458.237C1375.26,460.963 1372.76,462.842 1369.7,463.635C1366.63,464.427 1363.54,463.991 1360.82,462.384C1358.09,460.776 1356.21,458.281 1355.42,455.217C1354.62,452.152 1355.06,449.058 1356.67,446.331C1358.28,443.605 1360.77,441.727 1363.84,440.933C1366.9,440.141 1370,440.577 1372.72,442.185C1375.45,443.792 1377.33,446.287 1378.12,449.352C1378.91,452.417 1378.47,455.511 1376.87,458.237Z" style="fill:rgb(240,29,8);fill-rule:nonzero;"/>
        <path d="M621.49,275.249C614.022,272.953 607.612,269.596 601.472,264.766C598.894,262.576 596.808,260.28 594.874,257.505C592.648,254.316 591.183,251.018 590.309,247.228C589.443,243.373 589.472,239.675 590.398,235.834C592.623,228.311 596.539,222.01 602.299,216.684C605.79,213.249 609.2,210.364 613.167,207.49C622.449,201.059 631.61,196.242 642.169,192.239C654.789,187.343 666.606,183.776 679.827,180.874C724.953,170.953 766.942,166.23 813.144,165.879C834.824,165.517 854.556,166.504 876.092,169.028C894.928,171.248 911.838,175.155 929.738,181.424C943.23,186.101 954.668,192.818 965.326,202.323C969.267,206.059 972.125,210.236 974.177,215.263C976.705,223.91 974.661,233.022 968.681,239.76C960.356,249.774 950.963,257.391 939.444,263.465C935.251,265.797 931.355,267.764 926.99,269.753C906.397,278.585 886.106,283.041 863.708,283.65C879.884,278.987 894.201,273.383 909.246,265.827C916.332,262.538 922.423,258.779 928.539,253.919C930.66,252.089 932.443,250.255 934.212,248.083C937.973,243.506 940.191,238.336 940.917,232.457C941.067,230.365 940.882,228.438 940.338,226.412C938.73,221.912 935.947,218.276 932.023,215.549C927.694,212.371 923.497,209.838 918.668,207.49C895.51,196.804 872.871,190.457 847.533,187.548C800.342,181.628 756.537,183.027 709.82,191.945C678.538,197.927 651.02,208.412 623.689,224.764C618.388,227.944 613.951,231.483 609.672,235.944C608.152,237.662 606.955,239.389 605.88,241.415C605.071,243.042 604.567,244.637 604.296,246.434C603.793,251.718 605.18,256.714 608.335,260.984C612.181,266.458 616.344,270.972 621.49,275.249ZM643.027,529.451C643.03,526.284 644.225,523.399 646.462,521.16C648.7,518.922 651.587,517.726 654.752,517.726C657.917,517.726 660.804,518.922 663.042,521.16C665.28,523.398 666.475,526.284 666.475,529.451C666.476,532.615 665.28,535.503 663.042,537.74C660.804,539.978 657.917,541.174 654.752,541.174C651.586,541.175 648.699,539.979 646.461,537.74C644.223,535.503 643.027,532.615 643.027,529.451ZM709.269,208.668C699.233,212.345 690.344,216.334 680.926,221.388C676.033,223.699 671.773,226.203 667.375,229.355C665.184,231.016 663.485,232.92 662.081,235.284C660.675,238.148 660.222,241.167 660.725,244.318C661.229,247.469 662.601,250.197 664.83,252.48C669.24,256.997 674.293,260.107 680.313,262.011C688.387,264.749 695.942,266.614 704.363,267.947C713.444,269.386 721.762,270.296 730.94,270.852C766.545,273.678 799.319,271.561 834.265,264.179C849.352,261.013 862.575,255.685 875.643,247.508C877.572,246.13 879.224,244.733 880.902,243.059C882.99,240.942 884.403,238.528 885.228,235.671C885.683,233.849 885.879,232.137 885.849,230.26C885.61,223.551 883.609,217.496 879.804,211.965C882.709,212.836 885.213,214.104 887.635,215.931C889.83,217.731 891.424,219.869 892.522,222.487C894.766,228.698 895.26,234.921 894.025,241.409C893.58,243.957 892.933,246.232 891.972,248.633C890.599,251.986 888.669,254.764 886.005,257.22C883.197,259.804 880.343,261.83 876.977,263.628C863.268,271.139 849.66,275.917 834.265,278.625C798.715,284.547 765.867,286.819 729.84,285.848C708.455,286.197 688.957,284.004 668.184,278.913C665.256,278.008 662.634,277.058 659.806,275.877C652.098,272.716 645.828,267.992 640.663,261.456C639.711,260.153 638.92,258.915 638.136,257.505C636.477,254.533 635.601,251.471 635.437,248.072C635.406,245.51 635.925,243.168 637.035,240.859C639.482,236.582 642.656,233.224 646.788,230.539C652.488,226.676 657.986,223.628 664.282,220.838C678.995,214.344 693.288,210.478 709.269,208.668ZM660.039,500.327C660.034,497.162 661.23,494.274 663.47,492.038C665.708,489.8 668.594,488.604 671.76,488.604C674.926,488.602 677.813,489.798 680.05,492.037C682.289,494.276 683.484,497.162 683.485,500.327C683.482,503.493 682.287,506.378 680.05,508.617C677.811,510.855 674.925,512.051 671.76,512.051C668.596,512.047 665.712,510.852 663.472,508.617C661.234,506.378 660.038,503.492 660.039,500.327ZM908.301,529.849C908.302,533.016 907.106,535.901 904.868,538.139C902.629,540.377 899.743,541.573 896.578,541.573C893.412,541.572 890.526,540.377 888.288,538.139C886.05,535.901 884.854,533.016 884.854,529.849C884.855,526.685 886.05,523.798 888.288,521.56C890.526,519.321 893.412,518.126 896.578,518.126C899.743,518.125 902.629,519.321 904.867,521.559C907.106,523.798 908.301,526.685 908.301,529.849ZM891.29,500.727C891.29,503.892 890.094,506.778 887.856,509.017C885.618,511.255 882.731,512.45 879.566,512.45C876.401,512.448 873.516,511.253 871.277,509.016C869.039,506.778 867.844,503.892 867.844,500.727C867.842,497.561 869.037,494.674 871.277,492.437C873.514,490.199 876.401,489.003 879.566,489.003C882.731,489.003 885.618,490.199 887.856,492.437C890.094,494.675 891.29,497.562 891.29,500.727ZM764.027,327.82C764.027,324.655 765.223,321.768 767.461,319.53C769.699,317.292 772.586,316.096 775.751,316.096C778.916,316.096 781.803,317.292 784.041,319.53C786.279,321.768 787.475,324.655 787.475,327.82C787.475,330.985 786.279,333.871 784.041,336.11C781.803,338.348 778.916,339.543 775.751,339.543C772.586,339.543 769.699,338.348 767.461,336.11C765.223,333.871 764.027,330.985 764.027,327.82ZM785.232,496.131C783.626,498.859 781.13,500.739 778.064,501.529C775,502.321 771.906,501.885 769.179,500.278C766.452,498.67 764.573,496.175 763.781,493.111C762.989,490.046 763.424,486.952 765.032,484.225C766.639,481.498 769.134,479.618 772.199,478.827C775.264,478.036 778.358,478.471 781.085,480.079C783.812,481.686 785.691,484.181 786.483,487.246C787.275,490.311 786.839,493.404 785.232,496.131ZM785.432,528.63C783.826,531.359 781.33,533.24 778.264,534.029C775.199,534.82 772.105,534.384 769.378,532.776C766.651,531.168 764.772,528.673 763.981,525.608C763.19,522.543 763.625,519.45 765.233,516.723C766.839,513.995 769.335,512.116 772.4,511.325C775.465,510.533 778.559,510.969 781.286,512.577C784.013,514.184 785.892,516.68 786.683,519.745C787.475,522.809 787.039,525.903 785.432,528.63ZM694.042,444.196C694.046,441.03 695.242,438.145 697.478,435.905C699.717,433.667 702.603,432.472 705.768,432.472C708.933,432.473 711.819,433.668 714.057,435.906C716.295,438.144 717.49,441.03 717.489,444.196C717.494,447.361 716.298,450.249 714.058,452.485C711.82,454.723 708.934,455.919 705.768,455.919C702.602,455.923 699.713,454.727 697.477,452.486C695.238,450.247 694.043,447.361 694.042,444.196ZM786.023,561.758C784.414,564.483 781.919,566.362 778.854,567.155C775.789,567.947 772.696,567.511 769.969,565.904C767.242,564.296 765.363,561.801 764.572,558.736C763.781,555.671 764.216,552.578 765.824,549.851C767.43,547.123 769.926,545.244 772.992,544.453C776.056,543.661 779.15,544.097 781.877,545.705C784.604,547.312 786.483,549.808 787.275,552.872C788.067,555.937 787.631,559.031 786.023,561.758ZM745.921,356.521C745.919,353.356 747.115,350.469 749.354,348.231C751.592,345.993 754.478,344.798 757.643,344.798C760.809,344.797 763.695,345.993 765.933,348.231C768.171,350.469 769.367,353.356 769.367,356.521C769.367,359.686 768.172,362.573 765.933,364.811C763.695,367.049 760.809,368.245 757.643,368.245C754.478,368.242 751.594,367.047 749.354,364.811C747.116,362.572 745.921,359.686 745.921,356.521ZM728.887,385.69C728.887,382.525 730.082,379.638 732.32,377.4C734.558,375.162 737.445,373.966 740.61,373.966C743.776,373.964 746.663,375.16 748.901,377.4C751.139,379.638 752.334,382.524 752.335,385.69C752.333,388.855 751.137,391.741 748.9,393.98C746.662,396.218 743.775,397.413 740.61,397.413C737.445,397.413 734.559,396.218 732.32,393.98C730.082,391.741 728.887,388.855 728.887,385.69ZM710.746,414.815C710.748,411.649 711.944,408.764 714.181,406.525C716.419,404.287 719.305,403.091 722.471,403.091C725.636,403.091 728.522,404.287 730.76,406.525C732.999,408.763 734.194,411.649 734.194,414.815C734.194,417.98 732.999,420.866 730.76,423.105C728.522,425.343 725.636,426.538 722.471,426.538C719.305,426.541 716.417,425.345 714.18,423.105C711.942,420.867 710.746,417.98 710.746,414.815ZM677.372,472.09C677.37,468.925 678.565,466.038 680.804,463.801C683.042,461.562 685.929,460.366 689.094,460.366C692.259,460.366 695.146,461.562 697.384,463.8C699.622,466.038 700.818,468.925 700.818,472.09C700.818,475.255 699.622,478.142 697.384,480.38C695.146,482.618 692.26,483.814 689.094,483.814C685.929,483.812 683.044,482.617 680.805,480.38C678.567,478.142 677.371,475.255 677.372,472.09ZM857.284,444.595C857.282,447.76 856.086,450.646 853.849,452.885C851.611,455.123 848.724,456.319 845.559,456.319C842.394,456.319 839.508,455.123 837.269,452.885C835.031,450.647 833.836,447.76 833.836,444.595C833.836,441.43 835.031,438.543 837.269,436.305C839.507,434.067 842.394,432.871 845.559,432.871C848.725,432.869 851.612,434.065 853.85,436.305C856.088,438.543 857.284,441.43 857.284,444.595ZM805.407,356.921C805.407,360.086 804.212,362.972 801.974,365.21C799.736,367.449 796.849,368.644 793.684,368.644C790.518,368.646 787.631,367.451 785.393,365.211C783.155,362.972 781.959,360.086 781.959,356.921C781.962,353.755 783.157,350.87 785.394,348.631C787.632,346.392 790.519,345.197 793.684,345.197C796.849,345.197 799.736,346.393 801.974,348.631C804.212,350.869 805.407,353.755 805.407,356.921ZM822.442,386.089C822.442,389.255 821.246,392.141 819.008,394.379C816.77,396.617 813.883,397.813 810.718,397.813C807.552,397.815 804.665,396.619 802.428,394.379C800.189,392.141 798.994,389.255 798.994,386.089C798.996,382.924 800.191,380.039 802.429,377.799C804.667,375.561 807.553,374.366 810.718,374.366C813.883,374.366 816.77,375.561 819.008,377.8C821.246,380.038 822.442,382.924 822.442,386.089ZM840.58,415.214C840.585,418.38 839.389,421.268 837.149,423.504C834.91,425.742 832.024,426.938 828.859,426.938C825.693,426.94 822.806,425.744 820.568,423.504C818.33,421.266 817.134,418.38 817.134,415.214C817.136,412.049 818.332,409.163 820.569,406.924C822.807,404.686 825.693,403.491 828.859,403.491C832.024,403.491 834.909,404.687 837.148,406.925C839.385,409.163 840.58,412.049 840.58,415.214ZM873.956,472.49C873.956,475.655 872.76,478.541 870.522,480.779C868.284,483.018 865.397,484.213 862.232,484.213C859.067,484.213 856.181,483.018 853.942,480.779C851.704,478.541 850.509,475.655 850.509,472.49C850.508,469.324 851.704,466.438 853.942,464.2C856.18,461.962 859.067,460.766 862.232,460.766C865.397,460.766 868.283,461.962 870.522,464.2C872.76,466.438 873.956,469.324 873.956,472.49ZM785.07,394.261C783.464,396.99 780.967,398.87 777.901,399.66C774.836,400.451 771.742,400.015 769.015,398.408C766.288,396.8 764.41,394.304 763.619,391.239C762.828,388.174 763.264,385.081 764.871,382.355C766.48,379.629 768.975,377.75 772.039,376.957C775.103,376.166 778.197,376.601 780.923,378.208C783.65,379.816 785.529,382.311 786.321,385.376C787.113,388.441 786.677,391.534 785.07,394.261ZM784.927,428.038C783.319,430.765 780.824,432.644 777.759,433.436C774.694,434.227 771.6,433.792 768.874,432.184C766.146,430.577 764.267,428.081 763.476,425.016C762.684,421.952 763.12,418.859 764.727,416.132C766.334,413.404 768.83,411.524 771.895,410.734C774.96,409.942 778.053,410.378 780.781,411.985C783.507,413.592 785.387,416.088 786.178,419.153C786.97,422.218 786.534,425.311 784.927,428.038ZM785.762,462.34C784.156,465.068 781.659,466.948 778.594,467.738C775.529,468.53 772.435,468.094 769.709,466.487C766.982,464.879 765.104,462.383 764.311,459.319C763.52,456.254 763.956,453.161 765.563,450.434C767.17,447.706 769.666,445.827 772.731,445.036C775.796,444.244 778.89,444.68 781.617,446.287C784.343,447.895 786.222,450.39 787.014,453.455C787.805,456.52 787.37,459.613 785.762,462.34Z" style="fill:rgb(240,29,8);fill-rule:nonzero;"/>
        <path id="drone" fill="var(--color-brand)" d="M1138.38,388.941L1169.02,501.079L1146.18,501.079L1116.75,393.378L1106.44,394.665C1079.7,397.339 1055.12,397.085 1028.44,393.861L1023.05,393.069L994.079,499.09L971.24,499.09L1001.5,388.326L997.834,386.999C995.923,386.27 994.257,385.416 992.549,384.289C991.972,383.904 991.469,383.519 990.947,383.062C990.717,382.859 990.518,382.665 990.308,382.443C989.613,381.257 989.267,380.008 989.252,378.633L989.252,377.467L989.802,362.706C989.838,362.425 989.902,362.174 990.004,361.911C990.126,361.599 990.258,361.324 990.425,361.035C990.645,360.65 990.869,360.313 991.137,359.959C991.568,359.441 991.994,358.997 992.494,358.545C992.735,358.33 992.962,358.144 993.221,357.951C995.698,356.447 997.804,354.836 999.904,352.838C1000.11,352.662 1000.27,352.481 1000.43,352.263C1000.53,352.126 1000.59,351.989 1000.65,351.832C1000.69,351.618 1000.63,351.403 1000.48,351.243L959.966,310.808L801.119,293.473C800.029,293.389 799.039,293.298 797.952,293.182C797.265,293.095 796.618,293.183 795.98,293.45C795.342,293.717 794.825,294.118 794.407,294.669L792.415,299.58C792.237,300.037 792.11,300.466 792.01,300.946L791.946,302.797L762.797,302.797L760.794,299.136L750.88,284.494L748.901,281.28C748.441,280.463 748.054,279.704 747.663,278.852C747.561,278.628 747.489,278.414 747.435,278.173C747.377,277.907 747.34,277.662 747.319,277.39C747.287,276.943 747.282,276.535 747.304,276.088L747.554,272.961L747.585,272.178L747.585,265.27L756.849,265.27L756.849,237.24L791.003,237.553L791.003,265.27L961.851,265.27C964.03,265.255 966.01,265.025 968.133,264.541C970.361,264.04 972.356,263.447 974.496,262.649L1013.51,246.171C1017.49,244.484 1021.25,243.301 1025.47,242.409C1027.06,242.078 1028.53,241.865 1030.15,241.729C1030.93,241.667 1031.65,241.638 1032.43,241.637L1107.26,241.637C1108.81,241.649 1110.22,241.771 1111.76,242.025C1114.19,242.442 1116.38,243 1118.72,243.8C1121.17,244.628 1123.37,245.474 1125.75,246.504L1151.56,257.254C1156.5,259.707 1161.13,261.626 1166.36,263.375C1167.79,263.841 1169.11,264.205 1170.58,264.536C1172,264.852 1173.31,265.055 1174.75,265.183C1175.46,265.242 1176.11,265.269 1176.82,265.27L1351.6,265.27L1351.6,237.319L1385.67,237.319L1385.67,265.27L1389.83,265.27C1390.53,266.932 1390.92,268.552 1391.04,270.351C1391.33,273.014 1391.16,275.486 1390.51,278.084C1390.28,279.106 1389.91,280.002 1389.36,280.894L1387.67,283.523L1383.91,288.899L1382.22,291.572L1377.51,299.338L1375.15,302.799L1347.36,302.799L1343.71,294.535C1343.48,294.128 1343.18,293.804 1342.8,293.534C1342.32,293.412 1341.86,293.339 1341.36,293.304C1340.77,293.264 1340.24,293.256 1339.65,293.279L1337.06,293.465L1178.79,310.73L1139.76,349.831C1142.35,354.64 1146.69,357.953 1152.01,359.172L1152.48,377.232C1152.68,378.897 1152.48,380.461 1151.87,382.023C1151.63,382.327 1151.38,382.588 1151.09,382.856C1149.67,384.1 1148.22,385.054 1146.52,385.869C1145.03,386.591 1143.64,387.174 1142.08,387.729C1140.83,388.2 1139.67,388.579 1138.38,388.941Z"/>
    </g>
</svg>
