<?xml version="1.0" encoding="UTF-8" standalone="no"?>
<!DOCTYPE svg PUBLIC "-//W3C//DTD SVG 1.1//EN" "http://www.w3.org/Graphics/SVG/1.1/DTD/svg11.dtd">
<svg width="60" height="100%" viewBox="0 0 1182 606" version="1.1" xmlns="http://www.w3.org/2000/svg" xmlns:xlink="http://www.w3.org/1999/xlink" xml:space="preserve" xmlns:serif="http://www.serif.com/" style="fill-rule:evenodd;clip-rule:evenodd;stroke-linejoin:round;stroke-miterlimit:2;">
    <g>
        <g transform="matrix(8.33333,0,0,8.33333,26.5734,545.4)">
            <path d="M0,7.159L-2.429,0.813L-2.468,0.813C-2.422,1.316 -2.399,1.913 -2.399,2.605L-2.399,7.159L-3.168,7.159L-3.168,0L-1.914,0L0.353,5.905L0.392,5.905L2.678,0L3.922,0L3.922,7.159L3.09,7.159L3.09,2.546C3.09,2.017 3.113,1.443 3.158,0.823L3.119,0.823L0.671,7.159L0,7.159Z" style="fill:white;fill-rule:nonzero;"/>
        </g>
        <g transform="matrix(8.33333,0,0,8.33333,113.121,545.158)">
            <path d="M0,7.188L-0.891,4.911L-3.76,4.911L-4.642,7.188L-5.484,7.188L-2.654,0L-1.954,0L0.862,7.188L0,7.188ZM-1.151,4.162L-1.983,1.944C-2.091,1.663 -2.202,1.319 -2.316,0.91C-2.388,1.224 -2.491,1.568 -2.625,1.944L-3.467,4.162L-1.151,4.162Z" style="fill:white;fill-rule:nonzero;"/>
        </g>
        <g transform="matrix(8.33333,0,0,8.33333,171.597,545.4)">
            <path d="M0,7.159L-0.979,7.159L-3.589,3.687L-4.338,4.353L-4.338,7.159L-5.171,7.159L-5.171,0L-4.338,0L-4.338,3.55L-1.092,0L-0.108,0L-2.987,3.11L0,7.159Z" style="fill:white;fill-rule:nonzero;"/>
        </g>
        <g transform="matrix(8.33333,0,0,8.33333,213.052,545.4)">
            <path d="M0,7.159L-3.991,7.159L-3.991,0L0,0L0,0.74L-3.158,0.74L-3.158,3.046L-0.191,3.046L-0.191,3.78L-3.158,3.78L-3.158,6.415L0,6.415L0,7.159Z" style="fill:white;fill-rule:nonzero;"/>
        </g>
        <g transform="matrix(8.33333,0,0,8.33333,285.48,545.158)">
            <path d="M0,7.188L-0.891,4.911L-3.76,4.911L-4.642,7.188L-5.484,7.188L-2.654,0L-1.954,0L0.862,7.188L0,7.188ZM-1.151,4.162L-1.983,1.944C-2.091,1.663 -2.202,1.319 -2.316,0.91C-2.388,1.224 -2.491,1.568 -2.625,1.944L-3.467,4.162L-1.151,4.162Z" style="fill:white;fill-rule:nonzero;"/>
        </g>
        <g transform="matrix(8.33333,0,0,8.33333,327.098,576.617)">
            <path d="M0,-0.338L2.434,-0.338L2.434,3.143C2.055,3.264 1.67,3.356 1.278,3.418C0.886,3.48 0.433,3.511 -0.083,3.511C-1.167,3.511 -2.01,3.188 -2.615,2.544C-3.219,1.899 -3.521,0.995 -3.521,-0.167C-3.521,-0.911 -3.371,-1.563 -3.073,-2.123C-2.774,-2.683 -2.344,-3.11 -1.782,-3.406C-1.22,-3.701 -0.563,-3.849 0.191,-3.849C0.955,-3.849 1.667,-3.709 2.326,-3.428L2.003,-2.693C1.356,-2.968 0.735,-3.105 0.137,-3.105C-0.734,-3.105 -1.415,-2.845 -1.905,-2.326C-2.394,-1.807 -2.639,-1.087 -2.639,-0.167C-2.639,0.8 -2.403,1.532 -1.931,2.032C-1.46,2.531 -0.767,2.781 0.147,2.781C0.643,2.781 1.128,2.724 1.601,2.61L1.601,0.406L0,0.406L0,-0.338Z" style="fill:white;fill-rule:nonzero;"/>
        </g>
        <g transform="matrix(8.33333,0,0,8.33333,368.638,570.208)">
            <path d="M0,1.205L0,4.182L-0.832,4.182L-0.832,-2.977L1.131,-2.977C2.009,-2.977 2.658,-2.808 3.078,-2.472C3.497,-2.136 3.707,-1.63 3.707,-0.954C3.707,-0.008 3.227,0.632 2.267,0.965L4.211,4.182L3.227,4.182L1.493,1.205L0,1.205ZM0,0.49L1.141,0.49C1.729,0.49 2.159,0.373 2.434,0.14C2.708,-0.093 2.845,-0.443 2.845,-0.91C2.845,-1.383 2.706,-1.725 2.426,-1.934C2.147,-2.143 1.699,-2.247 1.082,-2.247L0,-2.247L0,0.49Z" style="fill:white;fill-rule:nonzero;"/>
        </g>
        <g transform="matrix(8.33333,0,0,8.33333,-354.335,-3455.84)">
            <rect x="92.123" y="480.149" width="0.833" height="7.159" style="fill:white;"/>
        </g>
        <g transform="matrix(8.33333,0,0,8.33333,462.202,599.667)">
            <path d="M0,-5.871C-0.787,-5.871 -1.407,-5.609 -1.864,-5.085C-2.318,-4.561 -2.546,-3.844 -2.546,-2.933C-2.546,-1.996 -2.327,-1.272 -1.887,-0.762C-1.449,-0.251 -0.823,0.005 -0.01,0.005C0.49,0.005 1.059,-0.085 1.699,-0.265L1.699,0.465C1.203,0.651 0.591,0.744 -0.137,0.744C-1.192,0.744 -2.005,0.424 -2.578,-0.216C-3.151,-0.856 -3.437,-1.764 -3.437,-2.943C-3.437,-3.681 -3.3,-4.327 -3.023,-4.882C-2.748,-5.437 -2.35,-5.864 -1.829,-6.165C-1.308,-6.465 -0.695,-6.615 0.01,-6.615C0.76,-6.615 1.417,-6.478 1.978,-6.204L1.626,-5.489C1.084,-5.744 0.542,-5.871 0,-5.871" style="fill:white;fill-rule:nonzero;"/>
        </g>
        <g transform="matrix(8.33333,0,0,8.33333,534.423,605.875)">
            <path d="M0,-7.257L0,-2.625C0,-1.809 -0.246,-1.167 -0.739,-0.701C-1.232,-0.234 -1.909,0 -2.771,0C-3.633,0 -4.3,-0.235 -4.772,-0.705C-5.244,-1.175 -5.479,-1.822 -5.479,-2.645L-5.479,-7.257L-4.646,-7.257L-4.646,-2.586C-4.646,-1.988 -4.483,-1.53 -4.157,-1.21C-3.831,-0.89 -3.351,-0.73 -2.718,-0.73C-2.114,-0.73 -1.648,-0.891 -1.322,-1.212C-0.995,-1.534 -0.832,-1.995 -0.832,-2.596L-0.832,-7.257L0,-7.257Z" style="fill:white;fill-rule:nonzero;"/>
        </g>
        <g transform="matrix(8.33333,0,0,8.33333,550.215,545.4)">
            <path d="M0,7.159L0,0L0.832,0L0.832,6.405L3.991,6.405L3.991,7.159L0,7.159Z" style="fill:white;fill-rule:nonzero;"/>
        </g>
        <g transform="matrix(8.33333,0,0,8.33333,611.957,545.4)">
            <path d="M0,7.159L-0.833,7.159L-0.833,0.74L-3.1,0.74L-3.1,0L2.267,0L2.267,0.74L0,0.74L0,7.159Z" style="fill:white;fill-rule:nonzero;"/>
        </g>
        <g transform="matrix(8.33333,0,0,8.33333,684.873,605.875)">
            <path d="M0,-7.257L0,-2.625C0,-1.809 -0.247,-1.167 -0.74,-0.701C-1.232,-0.234 -1.91,0 -2.771,0C-3.634,0 -4.3,-0.235 -4.772,-0.705C-5.243,-1.175 -5.479,-1.822 -5.479,-2.645L-5.479,-7.257L-4.647,-7.257L-4.647,-2.586C-4.647,-1.988 -4.484,-1.53 -4.157,-1.21C-3.831,-0.89 -3.351,-0.73 -2.718,-0.73C-2.114,-0.73 -1.649,-0.891 -1.322,-1.212C-0.996,-1.534 -0.832,-1.995 -0.832,-2.596L-0.832,-7.257L0,-7.257Z" style="fill:white;fill-rule:nonzero;"/>
        </g>
        <g transform="matrix(8.33333,0,0,8.33333,707.607,570.208)">
            <path d="M0,1.205L0,4.182L-0.832,4.182L-0.832,-2.977L1.131,-2.977C2.009,-2.977 2.658,-2.808 3.078,-2.472C3.497,-2.136 3.707,-1.63 3.707,-0.954C3.707,-0.008 3.227,0.632 2.267,0.965L4.211,4.182L3.227,4.182L1.494,1.205L0,1.205ZM0,0.49L1.141,0.49C1.729,0.49 2.16,0.373 2.434,0.14C2.708,-0.093 2.845,-0.443 2.845,-0.91C2.845,-1.383 2.706,-1.725 2.426,-1.934C2.147,-2.143 1.699,-2.247 1.082,-2.247L0,-2.247L0,0.49Z" style="fill:white;fill-rule:nonzero;"/>
        </g>
        <g transform="matrix(8.33333,0,0,8.33333,785.582,545.4)">
            <path d="M0,7.159L-3.991,7.159L-3.991,0L0,0L0,0.74L-3.158,0.74L-3.158,3.046L-0.191,3.046L-0.191,3.78L-3.158,3.78L-3.158,6.415L0,6.415L0,7.159Z" style="fill:white;fill-rule:nonzero;"/>
        </g>
        <g transform="matrix(8.33333,0,0,8.33333,854.173,561.233)">
            <path d="M0,3.354C0,3.984 -0.229,4.475 -0.685,4.828C-1.142,5.181 -1.763,5.357 -2.546,5.357C-3.395,5.357 -4.048,5.247 -4.505,5.029L-4.505,4.226C-4.211,4.35 -3.891,4.448 -3.545,4.519C-3.199,4.591 -2.856,4.627 -2.517,4.627C-1.962,4.627 -1.544,4.522 -1.263,4.311C-0.982,4.101 -0.842,3.808 -0.842,3.433C-0.842,3.184 -0.892,2.981 -0.991,2.823C-1.091,2.665 -1.258,2.518 -1.49,2.384C-1.724,2.251 -2.079,2.099 -2.556,1.929C-3.222,1.691 -3.698,1.408 -3.983,1.082C-4.269,0.756 -4.412,0.33 -4.412,-0.196C-4.412,-0.748 -4.205,-1.187 -3.79,-1.513C-3.375,-1.839 -2.827,-2.003 -2.145,-2.003C-1.433,-2.003 -0.779,-1.872 -0.181,-1.611L-0.44,-0.886C-1.031,-1.134 -1.606,-1.258 -2.164,-1.258C-2.605,-1.258 -2.949,-1.164 -3.198,-0.974C-3.445,-0.785 -3.57,-0.522 -3.57,-0.186C-3.57,0.062 -3.524,0.265 -3.432,0.423C-3.341,0.582 -3.187,0.727 -2.969,0.859C-2.753,0.992 -2.42,1.138 -1.973,1.298C-1.222,1.565 -0.706,1.853 -0.423,2.159C-0.141,2.466 0,2.864 0,3.354" style="fill:white;fill-rule:nonzero;"/>
        </g>
        <g transform="matrix(8.33333,0,0,8.33333,892.773,545.4)">
            <path d="M0,7.159L-2.429,0.813L-2.468,0.813C-2.422,1.316 -2.399,1.913 -2.399,2.605L-2.399,7.159L-3.168,7.159L-3.168,0L-1.914,0L0.353,5.905L0.392,5.905L2.678,0L3.922,0L3.922,7.159L3.09,7.159L3.09,2.546C3.09,2.017 3.113,1.443 3.158,0.823L3.119,0.823L0.671,7.159L0,7.159Z" style="fill:white;fill-rule:nonzero;"/>
        </g>
        <g transform="matrix(8.33333,0,0,8.33333,979.323,545.158)">
            <path d="M0,7.188L-0.891,4.911L-3.76,4.911L-4.642,7.188L-5.484,7.188L-2.654,0L-1.954,0L0.862,7.188L0,7.188ZM-1.151,4.162L-1.983,1.944C-2.091,1.663 -2.202,1.319 -2.316,0.91C-2.388,1.224 -2.491,1.568 -2.625,1.944L-3.467,4.162L-1.151,4.162Z" style="fill:white;fill-rule:nonzero;"/>
        </g>
        <g transform="matrix(8.33333,0,0,8.33333,1001.64,570.208)">
            <path d="M0,1.205L0,4.182L-0.833,4.182L-0.833,-2.977L1.131,-2.977C2.009,-2.977 2.657,-2.808 3.078,-2.472C3.497,-2.136 3.707,-1.63 3.707,-0.954C3.707,-0.008 3.227,0.632 2.267,0.965L4.211,4.182L3.227,4.182L1.493,1.205L0,1.205ZM0,0.49L1.141,0.49C1.729,0.49 2.159,0.373 2.434,0.14C2.708,-0.093 2.845,-0.443 2.845,-0.91C2.845,-1.383 2.706,-1.725 2.426,-1.934C2.147,-2.143 1.699,-2.247 1.082,-2.247L0,-2.247L0,0.49Z" style="fill:white;fill-rule:nonzero;"/>
        </g>
        <g transform="matrix(8.33333,0,0,8.33333,1064.72,545.4)">
            <path d="M0,7.159L-0.832,7.159L-0.832,0.74L-3.099,0.74L-3.099,0L2.267,0L2.267,0.74L0,0.74L0,7.159Z" style="fill:white;fill-rule:nonzero;"/>
        </g>
        <g transform="matrix(8.33333,0,0,8.33333,1125.85,545.4)">
            <path d="M0,7.159L-3.99,7.159L-3.99,0L0,0L0,0.74L-3.158,0.74L-3.158,3.046L-0.191,3.046L-0.191,3.78L-3.158,3.78L-3.158,6.415L0,6.415L0,7.159Z" style="fill:white;fill-rule:nonzero;"/>
        </g>
        <g transform="matrix(8.33333,0,0,8.33333,1146.01,570.208)">
            <path d="M0,1.205L0,4.182L-0.833,4.182L-0.833,-2.977L1.131,-2.977C2.009,-2.977 2.657,-2.808 3.078,-2.472C3.496,-2.136 3.706,-1.63 3.706,-0.954C3.706,-0.008 3.227,0.632 2.267,0.965L4.211,4.182L3.227,4.182L1.493,1.205L0,1.205ZM0,0.49L1.141,0.49C1.729,0.49 2.159,0.373 2.434,0.14C2.708,-0.093 2.845,-0.443 2.845,-0.91C2.845,-1.383 2.706,-1.725 2.426,-1.934C2.147,-2.143 1.699,-2.247 1.082,-2.247L0,-2.247L0,0.49Z" style="fill:white;fill-rule:nonzero;"/>
        </g>
        <g transform="matrix(8.33333,0,0,8.33333,6.73676,0.025)">
            <path d="M0,57.051L10.756,57.051L42.246,1.173C42.542,0.649 42.163,0 41.561,0L30.805,0L-0.685,55.878C-0.981,56.403 -0.602,57.051 0,57.051" style="fill:white;fill-rule:nonzero;"/>
        </g>
        <g transform="matrix(8.33333,0,0,8.33333,146.796,89.5)">
            <path d="M0,0.007L-6.051,-10.737L-16.859,-10.737C-17.437,-10.737 -17.801,-10.113 -17.517,-9.609L-6.051,10.744L0,0.007Z" style="fill:white;fill-rule:nonzero;"/>
        </g>
        <g transform="matrix(8.33333,0,0,8.33333,180.097,475.458)">
            <path d="M0,-39.223L-6.051,-28.486L10.002,0L20.748,0C21.354,0 21.736,-0.653 21.438,-1.182L0,-39.223Z" style="fill:white;fill-rule:nonzero;"/>
        </g>
        <g transform="matrix(8.33333,0,0,8.33333,959.732,394.775)">
            <path d="M0,-37.689L10.305,-37.689C13.203,-37.689 15.59,-35.527 15.957,-32.73L26.553,-32.73L26.553,-32.734C26.553,-40.817 20,-47.37 11.917,-47.37L-1.612,-47.37C-9.695,-47.37 -16.248,-40.817 -16.248,-32.734L-16.248,-4.955C-16.248,3.129 -9.695,9.681 -1.612,9.681L11.917,9.681C20,9.681 26.553,3.129 26.553,-4.955L26.553,-20.87C26.553,-22.427 25.291,-23.689 23.734,-23.689L6.257,-23.689L1.455,-15.181C1.157,-14.653 1.538,-13.999 2.145,-13.999L16.011,-13.999L16.011,-5.715C16.011,-2.564 13.457,-0.009 10.305,-0.009L0,-0.009C-3.151,-0.009 -5.706,-2.564 -5.706,-5.715L-5.706,-31.983C-5.706,-35.135 -3.151,-37.689 0,-37.689" style="fill:white;fill-rule:nonzero;"/>
        </g>
        <g transform="matrix(8.33333,0,0,8.33333,385.448,236.892)">
            <path d="M0,28.627L11.142,28.627C17.098,15.996 27.937,6.129 41.229,1.452L40.724,0C22.791,1.638 7.465,12.288 -0.683,27.387L-0.749,27.574C-0.927,28.089 -0.545,28.627 0,28.627" style="fill:rgb(207,35,51);fill-rule:nonzero;"/>
        </g>
        <g transform="matrix(8.33333,0,0,8.33333,553.223,64.5333)">
            <path d="M0,22.981L4.501,10.028C4.551,9.886 4.751,9.886 4.801,10.028L8.433,20.479C12.178,19.65 16.047,19.148 20.009,19.013L11.036,-6.776C10.834,-7.356 10.289,-7.744 9.675,-7.744L-0.373,-7.744C-0.986,-7.744 -1.532,-7.356 -1.734,-6.776L-14.688,30.457C-14.739,30.602 -14.575,30.725 -14.449,30.635C-10.021,27.493 -5.168,24.914 0,22.981" style="fill:white;fill-rule:nonzero;"/>
        </g>
        <g transform="matrix(8.33333,0,0,8.33333,804.757,272.442)">
            <path d="M0,23.309L-8.476,-1.053C-12.171,0.308 -15.568,2.281 -18.552,4.736L-11.732,24.362L-0.749,24.362C-0.203,24.362 0.179,23.824 0,23.309" style="fill:white;fill-rule:nonzero;"/>
        </g>
    </g>
</svg>
